<svg xmlns="http://www.w3.org/2000/svg" width="36" height="28" viewBox="0 0 36 28"><path fill="#fff" d="M1.86 10.656h1.39L2.547 8.97zm9.702 8.22l1.156-1.235-1.094-1.23H9.077v.77h2.22v.86h-2.22v.85h2.484zm2.47-1.22l1.546 1.72v-3.392zm4.5-.734q0-.516-.626-.516h-1.313v1.078h1.297q.64 0 .64-.562zm4.515-.063q0-.46-.656-.46h-1.28v.95h1.27q.67 0 .67-.5zm-4.344-7.29q0-.46-.656-.46h-1.28v.94h1.265q.672 0 .672-.49zm7.172 1.07h1.39l-.685-1.68zM10.922 8.23v4.234h-1.03v-3.31l-1.47 3.312h-.89L6.06 9.156v3.312H4l-.392-.938h-2.11l-.39.938H.014l1.813-4.234h1.5l1.72 4.016V8.234H6.7l1.33 2.876 1.203-2.876h1.687zm8.687 8.688q0 .313-.09.547t-.22.39-.35.257-.41.156-.49.07-.49.018-.51-.01-.46-.007v1.42h-1.97l-1.25-1.41-1.3 1.4h-4v-4.23h4.06l1.25 1.39 1.28-1.39h3.24q1.7 0 1.7 1.39zm-4.55-5.328v.875h-3.39V8.233h3.39v.89h-2.38v.767H15v.86h-2.313v.844h2.375zM36 20.328v3.578q0 .86-.602 1.477t-1.46.617H2.06q-.86 0-1.46-.617t-.603-1.477V13.312H1.73l.39-.953h.86l.39.95h3.41v-.72l.297.72h1.766l.313-.74v.73h8.453v-1.54l.15-.02q.15 0 .15.22v1.34h4.36v-.36q.36.18.86.28t.82.1.98-.01.8-.02l.39-.954H27l.39.95h3.55v-.9l.53.906h2.846V7.4h-2.81v.688l-.39-.687h-2.89v.69l-.36-.68h-3.89q-1.078 0-1.703.347V7.4h-2.69v.344q-.374-.345-1.14-.345H8.64l-.675 1.52-.672-1.52H4.2v.68l-.343-.68h-2.64l-1.22 2.8V4.09q0-.857.602-1.475T2.06 2h31.875q.86 0 1.46.617T36 4.094v10.594h-1.875q-.797 0-1.266.344v-.344h-2.77q-.86 0-1.22.344v-.344h-4.94v.344q-.49-.344-1.36-.344h-3.26v.344q-.36-.344-1.43-.344h-3.65l-.85.906-.78-.906H7.15v5.906h5.36l.858-.922.82.922h3.3v-1.39h.33q.92 0 1.41-.204v1.594h2.72v-1.547h.123q.13 0 .16.03t.03.157v1.36h8.27q.89 0 1.38-.376v.375h2.628q.94 0 1.487-.266zm-11.844-3.656q0 .36-.187.672t-.54.453q.39.14.53.406t.14.72v.843h-1.01v-.703q0-.516-.19-.68t-.72-.164h-1.07v1.54h-1.02v-4.23h2.41q.75 0 1.2.23t.45.9zm-4.328-7.297q0 .375-.195.688t-.523.453q.406.14.54.398t.132.727v.83h-1.016q0-.14.008-.41t0-.39-.047-.29-.133-.25-.274-.13-.46-.05h-1.09v1.53h-1V8.24l2.39.015q.77 0 1.22.23t.456.9zm8.266 9.516v.88H24.72v-4.23h3.374v.88h-2.36v.77h2.313v.86h-2.312v.85zM21.438 8.24v4.234h-1.03v-4.24h1.03zm10.828 10.188q0 1.344-1.594 1.344h-1.97v-.907h1.97q.53 0 .53-.39 0-.25-.265-.33t-.648-.076-.78-.06-.66-.35-.27-.86q0-.61.4-.94t1.03-.33h2.03v.89H30.2q-.56 0-.56.39 0 .25.273.32t.656.06.76.04.65.33.27.85zm3.734-.78v1.577q-.375.547-1.375.547h-1.953v-.907h1.953q.516 0 .516-.39 0-.203-.19-.297t-.48-.086-.62-.03-.62-.126-.48-.374-.19-.758q0-.61.414-.938t1.04-.33h2v.89h-1.85q-.562 0-.562.39 0 .315.454.346t1.07.078.883.406zM33.422 8.25v4.22h-1.437L30.08 9.296v3.172h-2.064l-.406-.94h-2.094l-.39.94h-1.173q-2.016 0-2.016-2.08 0-2.155 2.078-2.155H25v.922q-.11 0-.44-.016t-.444-.01-.36.03-.335.1-.22.21-.18.36-.04.52q0 .59.21.9t.78.31h.46l1.43-3.33h1.52l1.706 4v-4h1.548l1.78 2.94V8.25h1.035z"/></svg>