<svg xmlns="http://www.w3.org/2000/svg" width="36" height="28" viewBox="0 0 36 28"><path fill="#fff" d="M10.484 14.578h-.203q-.73 0-.73.5 0 .344.32.344.27 0 .44-.234t.19-.61zm6.172-.562h.97v-.047q.015-.07.007-.11t-.016-.11-.03-.13-.07-.1-.118-.08-.18-.03q-.44 0-.57.59zm8.438.562h-.187q-.75 0-.75.5 0 .344.313.344.266 0 .438-.234t.187-.61zm4.984-.406q0-.64-.47-.64-.296 0-.483.312t-.187.797q0 .66.438.66.313 0 .508-.31t.195-.81zM7.5 11.97h1.36l-.69 4.093h-.874l.5-3.14-1.11 3.14H6.08l-.063-3.125-.53 3.125h-.83l.69-4.094H6.61l.03 2.54zm3.953 1.67q0 .095-.063.657-.25 1.578-.266 1.766h-.734l.016-.344q-.313.4-.906.4-.36 0-.586-.25t-.227-.66q0-.61.406-.95t1.14-.34q.22 0 .36.01 0-.05.008-.088t.02-.07.01-.048q0-.318-.56-.318-.45 0-.92.16 0-.06.11-.75.6-.17 1.05-.17 1.16 0 1.16.97zm2.438-.906l-.12.766q-.34-.047-.64-.047-.42 0-.42.266 0 .12.07.18t.34.17q.63.29.63.94 0 1.12-1.36 1.11-.53 0-.9-.1 0-.03.11-.77.457.12.8.12.5 0 .5-.3 0-.11-.07-.18t-.334-.2q-.67-.314-.67-.92 0-1.128 1.31-1.128.47 0 .78.065zm1.38 0h.44l-.11.812h-.45q-.03.266-.1.633t-.11.6-.03.28q0 .25.3.25.13 0 .25-.03l-.12.73q-.33.11-.624.11-.673 0-.704-.74 0-.19.125-.88.05-.32.39-2.28h.86zm3.17 1.14q0 .36-.11.813H16.6q-.047.344.156.516t.595.172q.47 0 .91-.22l-.14.845q-.47.125-.89.125-1.48 0-1.48-1.484 0-.85.43-1.41t1.09-.55q.55 0 .87.33t.32.88zm2.17-1.155q-.2.35-.34.96-.34-.03-.48.37t-.39 2h-.87l.05-.22q.35-2.03.46-3.11h.797l-.046.51q.22-.33.398-.46t.448-.07zm2.93-.65l-.14.89q-.44-.22-.78-.22-.48 0-.8.43t-.31 1.1q0 .47.21.73t.61.26q.33 0 .75-.21l-.15.92q-.434.127-.78.127-.7 0-1.114-.477t-.415-1.29q0-1.094.56-1.79t1.43-.694q.404 0 .95.2zm2.54 1.56q0 .28-.06.65-.2 1.23-.26 1.76h-.72l.018-.35q-.31.405-.92.405-.36 0-.58-.25t-.217-.657q0-.61.395-.95t1.13-.336q.23 0 .36.014.03-.11.03-.204 0-.31-.563-.31-.45 0-.92.16 0-.068.127-.75.59-.177 1.043-.177 1.14 0 1.14.97zm2.21-.92q-.22.37-.33.96-.36-.03-.49.36t-.4 2.01h-.87l.046-.22q.298-1.63.454-3.11h.81q0 .17-.063.513.237-.327.417-.46t.43-.07zm2.206-.75h.876l-.67 4.09h-.83l.047-.3q-.36.36-.81.36-.486 0-.775-.38t-.29-1q0-.83.43-1.44t1.01-.61q.485 0 .83.45zM32.21 14q0-2.32-1.13-4.27t-3.1-3.09-4.277-1.14q-2.828 0-5.125 1.718 1.984 1.813 2.672 4.438h-.78Q19.78 9.312 18 7.703q-1.78 1.61-2.47 3.953h-.78q.688-2.625 2.672-4.438-2.297-1.72-5.125-1.72-2.312 0-4.273 1.142T4.93 9.734 3.797 14t1.133 4.266 3.094 3.094 4.273 1.14q2.828 0 5.125-1.718-1.875-1.734-2.578-4.125h.78q.72 2.156 2.376 3.64 1.656-1.483 2.375-3.64h.78q-.702 2.39-2.577 4.125 2.297 1.72 5.125 1.72 2.312 0 4.273-1.142t3.094-3.094T32.203 14zM36 4v20q0 .812-.594 1.406T34 26H2q-.812 0-1.406-.594T0 24V4q0-.812.594-1.406T2 2h32q.812 0 1.406.594T36 4z"/></svg>