<svg xmlns="http://www.w3.org/2000/svg" width="36" height="28" viewBox="0 0 36 28"><path fill="#fff" d="M11.64 14.156q0 .578-.397.96t-.977.384q-.453 0-.727-.25t-.28-.688q0-.578.39-.977t.97-.398q.44 0 .72.258t.29.71zm12.266-2.328q0 .656-.344.89t-1.03.235l-.5.016.265-1.68q.03-.17.203-.17h.28q.345 0 .548.03t.39.19.188.47zm5.485 2.328q0 .562-.39.953t-.96.39q-.45 0-.73-.25t-.28-.69q0-.58.39-.98t.97-.4q.44 0 .73.26t.29.71zM8.02 11.484q0-.922-.602-1.336t-1.57-.414h-2.5q-.297 0-.328.297L2 16.41q-.016.094.047.172t.156.077H3.39q.314 0 .345-.3l.28-1.72q.017-.13.11-.21t.234-.11.26-.03.29.015.22.016q1.34 0 2.11-.76t.76-2.1zm4.828 4.875l.64-4.08q.017-.1-.046-.17t-.157-.08h-1.188q-.22 0-.266.51-.42-.63-1.48-.63-1.12 0-1.91.84t-.79 1.98q0 .92.54 1.47t1.45.54q.44 0 .91-.19t.75-.5q-.06.184-.06.33 0 .25.21.25h1.08q.3 0 .346-.3zm6.984-4.11q0-.08-.064-.15t-.14-.07H18.42q-.17 0-.28.15l-1.656 2.44-.688-2.35q-.078-.25-.344-.25H14.28q-.078 0-.14.07t-.064.15q0 .03.305.92t.66 1.92.37 1.09q-1.28 1.75-1.28 1.87 0 .2.2.2h1.21q.17 0 .28-.158l3.99-5.75q.03-.03.03-.11zm5.937-.77q0-.92-.61-1.34t-1.57-.42h-2.48q-.32 0-.35.29l-1.01 6.39q-.02.09.04.17t.156.08h1.28q.19 0 .25-.21l.282-1.814q.015-.126.11-.204t.232-.11.266-.02.297.01.22.015q1.35 0 2.11-.758t.77-2.106zm4.82 4.87l.64-4.08q.01-.1-.05-.17t-.16-.08h-1.19q-.22 0-.27.51-.41-.63-1.49-.63-1.128 0-1.917.84t-.79 1.98q0 .922.54 1.47t1.444.546q.456 0 .925-.187t.734-.5q0 .015-.03.14t-.03.187q0 .25.203.25h1.08q.295 0 .342-.292zM34 9.97v-.017q0-.22-.203-.22H32.64q-.17 0-.202.173l-1.016 6.5-.016.03q0 .08.063.15t.15.07h1.03q.3 0 .33-.298zM6.125 12.062q-.078.547-.406.72t-.94.17l-.52.017.26-1.68q.03-.17.2-.17h.29q.62 0 .91.18t.18.76zM36 4v20q0 .812-.594 1.406T34 26H2q-.812 0-1.406-.594T0 24V4q0-.812.594-1.406T2 2h32q.812 0 1.406.594T36 4z"/></svg>