<svg xmlns="http://www.w3.org/2000/svg" width="36" height="28" viewBox="0 0 36 28"><path fill="#fff" d="M30.86 15.47h-2.157q.22-.58 1.03-2.798l.048-.14q.07-.157.16-.407t.14-.406l.19.85zM8.296 14.452l-.906-4.61Q7.22 9 6.22 9H2.03L2 9.203q4.86 1.234 6.297 5.25zM11.094 9l-2.53 6.844-.267-1.39Q7.89 13.358 6.97 12.43t-2.05-1.383l2.11 7.97h2.733L13.843 9h-2.75zm2.172 10.03h2.594L17.485 9H14.89zm12-9.78q-1.078-.422-2.328-.422-1.922 0-3.14.922t-1.235 2.39q-.016 1.595 2.266 2.72.75.36 1.04.64t.29.61q0 .47-.47.72t-1.08.25q-1.35 0-2.44-.517l-.35-.172-.36 2.25q1.152.54 2.89.54 2.03.02 3.26-.92t1.26-2.5q0-1.65-2.19-2.72-.77-.39-1.11-.65t-.34-.59q0-.34.38-.6t1.1-.26q1.093-.01 1.936.38l.236.13zm6.64-.25h-2q-1.016 0-1.36.844l-3.843 9.188h2.72l.546-1.5h3.31q.08.344.31 1.5H34zM36 4v20q0 .812-.594 1.406T34 26H2q-.812 0-1.406-.594T0 24V4q0-.812.594-1.406T2 2h32q.812 0 1.406.594T36 4z"/></svg>