<svg xmlns="http://www.w3.org/2000/svg" width="26" height="28" viewBox="0 0 26 28"><path fill="#fff" d="M20 21q0-.406-.297-.703T19 20t-.703.297T18 21t.297.703T19 22t.703-.297T20 21zm4 0q0-.406-.297-.703T23 20t-.703.297T22 21t.297.703T23 22t.703-.297T24 21zm2-3.5v5q0 .625-.438 1.062T24.5 24h-23q-.625 0-1.062-.438T0 22.5v-5q0-.625.438-1.062T1.5 16h7.266l2.11 2.125Q11.78 19 13 19t2.125-.875L17.25 16h7.25q.625 0 1.062.438T26 17.5zm-5.078-8.89q.266.64-.22 1.093l-7 7Q13.422 17 13 17t-.703-.297l-7-7q-.484-.453-.22-1.094Q5.345 8 6 8h4V1q0-.406.297-.703T11 0h4q.406 0 .703.297T16 1v7h4q.656 0 .922.61z"/></svg>