<svg xmlns="http://www.w3.org/2000/svg" width="48" height="48" viewBox="0 0 48 48"><path fill="#fff" d="M30.188 16.03V12q0-2.53-1.828-4.36T24 5.814 19.643 7.64 17.813 12v4.03H30.19zM24 34.03q1.594 0 2.813-1.218T28.033 30t-1.22-2.814T24 25.966t-2.813 1.22T19.967 30t1.22 2.812T24 34.032zm12-18q1.594 0 2.813 1.173t1.22 2.766v20.06q0 1.59-1.22 2.763T36 43.97H12q-1.594 0-2.813-1.172t-1.22-2.766V19.97q0-1.595 1.22-2.767T12 16.03h1.97V12q0-4.125 2.952-7.078T24 1.97t7.078 2.952T34.03 12v4.03H36z"/></svg>