<svg xmlns="http://www.w3.org/2000/svg" width="20" height="28" viewBox="0 0 20 28"><path fill="#fff" d="M0 9.328q0-1.687.586-3.18t1.617-2.602 2.375-1.922 2.89-1.22T10.626 0q2.47 0 4.594 1.038t3.45 3.022T20 8.546q0 1.5-.297 2.938t-.938 2.766-1.563 2.335-2.266 1.61-2.953.6q-1.062 0-2.11-.5t-1.5-1.374q-.155.61-.437 1.76t-.366 1.49-.32 1.11-.41 1.11-.5.98-.72 1.21-.97 1.36l-.22.08-.14-.15q-.234-2.45-.234-2.94 0-1.43.336-3.22t1.04-4.49.81-3.173q-.5-1.013-.5-2.64 0-1.3.813-2.44T8.62 5.8q.953 0 1.484.632t.53 1.602q0 1.03-.687 2.983t-.69 2.922q0 .98.704 1.63t1.71.65q.86 0 1.6-.39t1.23-1.07.88-1.49.6-1.73.312-1.74.105-1.56q0-2.7-1.71-4.21t-4.47-1.5Q7.094 2.53 5 4.555T2.888 9.7q0 .688.193 1.328t.43 1.016.42.71.197.478q0 .438-.232 1.14t-.577.704q-.03 0-.268-.047-.798-.24-1.415-.88T.68 12.67t-.507-1.68-.175-1.67z"/></svg>