<svg xmlns="http://www.w3.org/2000/svg" width="26" height="28" viewBox="0 0 26 28"><path fill="#fff" d="M6 24h14v-4H6v4zm0-10h14V8h-2.5q-.625 0-1.062-.438T16 6.5V4H6v10zm18 1q0-.406-.297-.703T23 14t-.703.297T22 15t.297.703T23 16t.703-.297T24 15zm2 0v6.5q0 .203-.148.352T25.5 22H22v2.5q0 .625-.438 1.062T20.5 26h-15q-.625 0-1.062-.438T4 24.5V22H.5q-.203 0-.352-.148T0 21.5V15q0-1.234.883-2.117T3 12h1V3.5q0-.625.438-1.062T5.5 2H16q.625 0 1.375.313t1.188.75l2.375 2.375q.438.438.75 1.188T22 8v4h1q1.235 0 2.118.884T26 15z"/></svg>