<svg xmlns="http://www.w3.org/2000/svg" width="20" height="20" viewBox="0 0 20 20"><path fill="#fff" d="M14.25.438L.437 14.25a1.505 1.505 0 0 0 .002 2.125l3.18 3.187c.58.584 1.54.586 2.12.002L19.56 5.75a1.508 1.508 0 0 0 0-2.124L16.376.438a1.51 1.51 0 0 0-2.127 0zM3.93 15.312l-.76.76-1.896-1.898.76-.76 1.895 1.898zm3.035 0l-.76.76-3.414-3.416.76-.76 3.42 3.416zm0-3.036l-.76.76-1.897-1.897.76-.76 1.897 1.89zm1.518-1.518l-.76.76L5.83 9.62l.76-.76 1.895 1.898zm3.035 0l-.76.76-3.413-3.415.76-.76 3.413 3.415zm0-3.035l-.76.76-1.895-1.897.76-.76 1.895 1.897zm1.518-1.517l-.76.76-1.896-1.898.76-.76 1.896 1.898zm3.036 0l-.76.76-3.414-3.416.76-.76 3.414 3.416zm0-3.035l-.76.76-1.896-1.89.76-.76 1.894 1.89z"/></svg>